<svg width="64" height="28" viewBox="0 0 64 28" fill="none" xmlns="http://www.w3.org/2000/svg">
<g clip-path="url(#clip0_7_45)">
<path d="M32.4466 12.4904L36.5353 12.4842C36.976 13.605 37.4044 14.8664 37.8175 16.0064L40.2728 22.7822C40.6747 21.5913 41.1544 20.3341 41.5844 19.147L43.9975 12.4935C45.3544 12.4572 46.9556 12.484 48.3191 12.4926C47.9141 13.7264 47.3728 15.1153 46.925 16.3494C45.5856 20.1652 44.1428 24.0293 42.7622 27.8353L37.7753 27.8377C37.6519 27.4412 37.4416 26.908 37.2956 26.5048L36.3338 23.848L33.4981 16.0217C33.1222 14.988 32.5535 13.5625 32.2388 12.5325C32.29 12.4863 32.3625 12.4973 32.4466 12.4904Z" fill="#69D1D1"/>
<path d="M26.6148 12.5038L30.6829 12.4954L30.6822 27.8438C29.3721 27.8186 27.9323 27.8282 26.6197 27.8453C26.5855 26.177 26.617 24.3954 26.6169 22.7196L26.6148 12.5038Z" fill="#69D1D1"/>
<path d="M28.3039 6.17597C29.6166 5.98339 30.8353 6.89913 31.0237 8.21959C31.2121 9.54005 30.2985 10.7634 28.985 10.9497C27.6758 11.1354 26.4643 10.2205 26.2766 8.90444C26.0888 7.58844 26.9957 6.36788 28.3039 6.17597Z" fill="#69D1D1"/>
<path d="M19.6318 0H20.5564C20.8367 0.0533043 21.202 0.0968005 21.4692 0.17529C22.7098 0.539787 23.577 1.20254 24.3079 2.25954C25.1827 3.52445 25.3782 5.23182 25.077 6.7304C24.2973 10.6095 21.1755 13.9896 18.0408 16.1866C16.5274 17.2473 15.1614 17.8136 13.4148 18.3125C13.2297 19.9614 12.9406 22.0964 12.9009 23.7423L20.2746 23.7444C21.5664 23.7445 22.9819 23.775 24.2569 23.7347L24.257 27.8325L14.0284 27.8342C12.2499 27.8342 10.4361 27.8156 8.65994 27.8379C8.71316 26.7232 8.72384 25.6076 8.77828 24.4904C8.87225 22.5569 9.03688 20.6275 9.27181 18.7061C5.55491 18.3897 2.53064 16.945 0 14.1679V14.1485C0.311692 13.8928 0.705094 13.5167 1.01148 13.2414L3.02345 11.4322C4.98884 13.5739 7.02388 14.4403 9.87475 14.6516C10.5714 11.0417 11.4357 7.28349 13.5368 4.20899C14.6592 2.56669 16.2158 1.02052 18.1222 0.355345C18.6849 0.159003 19.0627 0.106635 19.6318 0ZM14.2113 13.7179C14.4855 13.5803 14.7536 13.4478 15.0203 13.2953C17.5584 11.6949 20.2555 9.10588 21.0431 6.10875C21.2758 5.2229 21.1544 4.00966 19.9534 4.09413C17.9374 4.39785 16.2432 7.28698 15.5674 9.04158C15.0056 10.5004 14.5103 12.1818 14.2113 13.7179Z" fill="#69D1D1"/>
<path d="M55.5037 28C55.3053 27.9437 54.7522 27.8816 54.4875 27.8232C53.4875 27.5981 52.5412 27.1787 51.7012 26.5885C50.0084 25.39 48.8578 23.5654 48.5012 21.5147C48.1328 19.4647 48.5978 17.3517 49.7919 15.6494C50.9797 13.944 52.7925 12.7828 54.8315 12.421C56.8872 12.0597 59.0012 12.5401 60.7028 13.7551C62.2194 14.8313 63.3022 16.4186 63.7544 18.2291C63.8956 18.8007 63.9059 19.1752 64 19.7215V20.7547C63.9087 21.2587 63.8709 21.7376 63.7328 22.2335C62.8994 25.2221 60.3372 27.5118 57.2656 27.9218C57.1312 27.9397 56.9734 27.9721 56.8384 28H55.5037ZM56.6406 23.8899C58.6934 23.6421 60.1572 21.7668 59.9084 19.7028C59.66 17.6389 57.7934 16.169 55.7412 16.4211C53.6922 16.6728 52.2331 18.5463 52.4812 20.6072C52.7297 22.6682 54.5909 24.1373 56.6406 23.8899Z" fill="#69D1D1"/>
</g>
<defs>
<clipPath id="clip0_7_45">
<rect width="64" height="28" fill="white"/>
</clipPath>
</defs>
</svg>
